HIERARCHY
ROOT hip
{
	OFFSET 0.000000 0.000000 0.000000 
	CHANNELS 6 Xposition Yposition Zposition Xrotation Zrotation Yrotation
	JOINT abdomen
	{
		OFFSET 0.000000 3.402643 0.000000 
		CHANNELS 3 Xrotation Zrotation Yrotation
		JOINT chest
		{
			OFFSET 0.000000 8.438565 -0.680529 
			CHANNELS 3 Xrotation Zrotation Yrotation
			JOINT neck
			{
				OFFSET 0.000000 10.207942 -0.272212 
				CHANNELS 3 Xrotation Zrotation Yrotation
				JOINT head
				{
					OFFSET 0.000000 3.130431 0.000000 
					CHANNELS 3 Xrotation Zrotation Yrotation
					End Site
					{
						OFFSET 0.000000 3.130435 0.000000 
					}
				}
			}
			JOINT lCollar
			{
				OFFSET 3.470700 6.669187 -0.816635 
				CHANNELS 3 Yrotation Zrotation Xrotation
				JOINT lShldr
				{
					OFFSET 3.198488 0.000000 0.000000 
					CHANNELS 3 Zrotation Yrotation Xrotation
					JOINT lForeArm
					{
						OFFSET 10.139888 0.000000 0.000000 
						CHANNELS 3 Yrotation Zrotation Xrotation
						JOINT lHand
						{
							OFFSET 8.370511 0.000000 0.000000 
							CHANNELS 3 Zrotation Yrotation Xrotation
							End Site
							{
								OFFSET 4.083176 0.000000 0.000000 
							}
						}
					}
				}
			}
			JOINT rCollar
			{
				OFFSET -3.470700 6.669187 -0.816635 
				CHANNELS 3 Yrotation Zrotation Xrotation
				JOINT rShldr
				{
					OFFSET -3.198488 0.000000 0.000000 
					CHANNELS 3 Zrotation Yrotation Xrotation
					JOINT rForeArm
					{
						OFFSET -10.139888 0.000000 0.000000 
						CHANNELS 3 Yrotation Zrotation Xrotation
						JOINT rHand
						{
							OFFSET -8.370511 0.000000 0.000000 
							CHANNELS 3 Zrotation Yrotation Xrotation
							End Site
							{
								OFFSET -4.083176 0.000000 0.000000 
							}
						}
					}
				}
			}
		}
	}
	JOINT lThigh
	{
		OFFSET 5.308129 -1.633274 1.361059 
		CHANNELS 3 Xrotation Zrotation Yrotation
		JOINT lShin
		{
			OFFSET -2.041588 -20.007561 0.000000 
			CHANNELS 3 Xrotation Zrotation Yrotation
			JOINT lFoot
			{
				OFFSET 0.000000 -19.190928 -1.224953 
				CHANNELS 3 Xrotation Yrotation Zrotation
				End Site
				{
					OFFSET 0.000000 -2.449906 4.627600 
				}
			}
		}
	}
	JOINT rThigh
	{
		OFFSET -5.308129 -1.633274 1.361059 
		CHANNELS 3 Xrotation Zrotation Yrotation
		JOINT rShin
		{
			OFFSET 2.041588 -20.007561 0.000000 
			CHANNELS 3 Xrotation Zrotation Yrotation
			JOINT rFoot
			{
				OFFSET 0.000000 -19.190928 -1.224953 
				CHANNELS 3 Xrotation Yrotation Zrotation
				End Site
				{
					OFFSET 0.000000 -2.449906 4.627600 
				}
			}
		}
	}
}
MOTION
Frames: 18
Frame Time: 0.016667
0.087884 44.985146 3.693410 0.949640 -4.052180 -2.743420 -20.336300 1.440660 0.393098 17.783199 0.097542 0.405431 18.116699 -1.816050 -0.240779 13.261800 3.836630 0.441466 2.000000 -2.000000 0.000000 87.878998 170.287994 1.871480 38.428101 -0.321951 0.085032 0.045305 -0.014665 -142.166000 -2.000000 2.000000 0.000000 -90.805298 -164.242004 -1.768300 -42.090302 0.316305 0.091646 -0.054413 0.002133 -137.684006 -8.697042 4.523815 -8.576855 25.835928 3.640309 1.738127 -20.894079 11.876801 4.826081 2.611111 2.890822 2.767589 3.534202 -4.193788 -0.124295 -16.000210 -10.557600 -3.163256 
0.090249 44.986565 3.684581 0.949628 -4.042420 -2.762780 -20.316601 1.435080 0.406018 17.783199 0.087788 0.415669 18.116501 -1.797490 -0.234706 13.271800 3.846150 0.443687 2.000000 -2.000000 0.000000 87.869202 170.337006 1.842300 38.369499 -0.322038 0.084922 0.045300 -0.014611 -142.145996 -2.000000 2.000000 0.000000 -90.776001 -164.272003 -1.826820 -42.012100 0.316430 0.091507 -0.054408 0.001750 -137.546997 -8.708014 4.505891 -8.595633 25.855459 3.641778 1.738303 -20.937622 11.943992 4.851611 2.575900 2.866613 2.791312 3.556190 -4.187499 -0.114932 -16.013432 -10.576124 -3.163262 
0.091364 44.987976 3.676256 0.959465 -4.081460 -2.812960 -20.306999 1.456890 0.408579 17.802700 0.078035 0.416168 18.116301 -1.833930 -0.237127 13.271600 3.836510 0.442119 2.000000 -2.000000 0.000000 87.839897 170.395996 1.793610 38.291401 -0.322153 0.084776 0.045293 -0.014529 -142.117004 -2.000000 2.000000 0.000000 -90.766296 -164.291000 -1.846300 -41.953499 0.316523 0.091403 -0.054407 0.001613 -137.498001 -8.713229 4.541320 -8.606224 25.865522 3.640242 1.737898 -20.993015 11.987576 4.873196 2.569457 2.905729 2.843283 3.531314 -4.183446 -0.124377 -16.008093 -10.583829 -3.167898 
0.093483 44.989136 3.667527 0.979094 -4.120490 -2.854080 -20.297400 1.482140 0.420291 17.832001 0.078037 0.425974 18.096399 -1.906650 -0.242486 13.261500 3.807720 0.436119 2.000000 -2.000000 0.000000 87.810699 170.445007 1.744890 38.223000 -0.322254 0.084648 0.045280 -0.014393 -142.067993 -2.000000 2.000000 0.000000 -90.785797 -164.281998 -1.856090 -41.953499 0.316523 0.091403 -0.054406 0.001586 -137.488007 -8.731557 4.556293 -8.645252 25.883316 3.651866 1.730598 -21.035280 12.026228 4.915151 2.531065 2.933863 2.890809 3.524958 -4.188799 -0.124207 -15.985769 -10.582178 -3.163299 
0.095388 44.989136 3.659775 0.998675 -4.120470 -2.865250 -20.287800 1.500530 0.413721 17.861300 0.078039 0.426014 18.077801 -1.980750 -0.267244 13.251300 3.778930 0.430781 2.000000 -2.000000 0.000000 87.781303 170.455002 1.744920 38.213299 -0.322269 0.084629 0.045283 -0.014420 -142.078003 -2.000000 2.000000 0.000000 -90.815102 -164.281998 -1.836560 -41.953499 0.316523 0.091403 -0.054407 0.001668 -137.516998 -8.734964 4.561952 -8.703734 25.828735 3.622965 1.744103 -20.998489 12.041532 4.941523 2.513296 2.935316 2.898886 3.523857 -4.189237 -0.114513 -15.971704 -10.585532 -3.164337 
0.095673 44.988235 3.650396 0.998675 -4.120470 -2.855490 -20.297600 1.497030 0.404375 17.841801 0.078037 0.425987 18.088301 -2.045810 -0.288217 13.250800 3.740370 0.414764 2.000000 -2.000000 0.000000 87.781303 170.445007 1.783960 38.213299 -0.322269 0.084629 0.045295 -0.014556 -142.126999 -2.000000 2.000000 0.000000 -90.815102 -164.281998 -1.826790 -41.943802 0.316539 0.091386 -0.054408 0.001722 -137.537003 -8.725752 4.574201 -8.674813 25.816769 3.636051 1.737346 -20.998108 12.008728 4.910249 2.497623 2.938503 2.877780 3.534137 -4.180571 -0.114348 -15.959519 -10.573009 -3.145508 
0.094441 44.986565 3.638421 0.979070 -4.100970 -2.863510 -20.307199 1.487800 0.407561 17.802700 0.078035 0.425934 18.099100 -1.992240 -0.298958 13.251100 3.759650 0.417890 2.000000 -2.000000 0.000000 87.800903 170.434998 1.813230 38.213299 -0.322269 0.084629 0.045307 -0.014693 -142.175995 -2.000000 2.000000 0.000000 -90.815102 -164.281998 -1.797500 -41.914501 0.316585 0.091334 -0.054408 0.001722 -137.537003 -8.772064 4.540852 -8.643234 25.892717 3.658417 1.741747 -21.021465 11.992855 4.891581 2.500470 2.921895 2.886856 3.535379 -4.192310 -0.115120 -15.959208 -10.552804 -3.145413 
0.092482 44.984890 3.627602 0.959453 -4.071700 -2.871390 -20.297501 1.491300 0.416905 17.783199 0.097542 0.424962 18.078600 -1.899240 -0.269149 13.251700 3.807840 0.425705 2.000000 -2.000000 0.000000 87.800903 170.445007 1.803490 38.242599 -0.322226 0.084684 0.045297 -0.014584 -142.136993 -2.000000 2.000000 0.000000 -90.834602 -164.281998 -1.768200 -41.904701 0.316601 0.091316 -0.054408 0.001722 -137.537003 -8.750545 4.508944 -8.702357 25.874960 3.643469 1.738525 -21.028376 12.014955 4.917911 2.512316 2.894850 2.915105 3.535920 -4.191851 -0.115074 -15.993525 -10.557795 -3.139993 
0.092356 44.985146 3.620447 0.949640 -4.052180 -2.870370 -20.297501 1.500460 0.413520 17.783199 0.117050 0.424017 18.068199 -1.898470 -0.259685 13.241900 3.807970 0.425056 2.000000 -2.000000 0.000000 87.781303 170.425003 1.754610 38.310902 -0.322125 0.084812 0.045275 -0.014338 -142.048996 -2.000000 2.000000 0.000000 -90.834602 -164.281998 -1.817030 -41.904701 0.316601 0.091316 -0.054407 0.001695 -137.526993 -8.752987 4.488135 -8.731101 25.884701 3.644348 1.738643 -21.024036 12.044762 4.923261 2.503551 2.877827 2.902983 3.542456 -4.186823 -0.124303 -15.968746 -10.555975 -3.148212 
0.093095 44.985924 3.613357 0.949663 -4.071710 -2.851160 -20.307501 1.515270 0.397400 17.783199 0.136559 0.423072 18.078600 -1.899240 -0.269149 13.242000 3.817610 0.426617 2.000000 -2.000000 0.000000 87.742302 170.416000 1.715530 38.369499 -0.322038 0.084922 0.045268 -0.014257 -142.018997 -2.000000 2.000000 0.000000 -90.824799 -164.281998 -1.875620 -41.904701 0.316601 0.091316 -0.054407 0.001640 -137.507996 -8.764140 4.503260 -8.701515 25.875990 3.635587 1.736786 -21.030323 12.038356 4.909677 2.501165 2.895376 2.884703 3.542779 -4.186549 -0.124275 -15.959846 -10.555631 -3.135842 
0.093612 44.985664 3.606898 0.930128 -4.110790 -2.830880 -20.288200 1.530320 0.381896 17.802700 0.136561 0.413353 18.040501 -1.936720 -0.292012 13.232000 3.798460 0.413082 2.000000 -2.000000 0.000000 87.732498 170.445007 1.725360 38.379299 -0.322023 0.084940 0.045275 -0.014338 -142.048996 -2.000000 2.000000 0.000000 -90.824898 -164.311005 -1.914610 -41.914501 0.316585 0.091334 -0.054405 0.001504 -137.459000 -8.760738 4.538435 -8.731976 25.904602 3.645999 1.748648 -21.108088 11.995595 4.916474 2.519677 2.933356 2.870111 3.541899 -4.186803 -0.114562 -16.001375 -10.535231 -3.161784 
0.095669 44.984249 3.603786 0.890975 -4.120600 -2.838000 -20.258801 1.533970 0.391663 17.841801 0.117056 0.424137 17.963100 -2.037570 -0.317443 13.201900 3.740990 0.401813 2.000000 -2.000000 0.000000 87.732597 170.483994 1.735220 38.369499 -0.322038 0.084922 0.045270 -0.014284 -142.029007 -2.000000 2.000000 0.000000 -90.815102 -164.350006 -1.943810 -41.904701 0.316601 0.091316 -0.054404 0.001340 -137.399994 -8.729627 4.547536 -8.791564 25.923645 3.648121 1.739183 -21.200706 11.992200 4.925860 2.556761 2.940761 2.864188 3.553893 -4.189448 -0.114416 -16.037846 -10.537028 -3.156262 
0.098428 44.982574 3.600180 0.861613 -4.130390 -2.826280 -20.249001 1.521460 0.386105 17.861300 0.078039 0.416248 17.874300 -2.044810 -0.303125 13.162700 3.741480 0.409029 2.000000 -2.000000 0.000000 87.752098 170.494003 1.725480 38.359798 -0.322052 0.084904 0.045273 -0.014311 -142.039001 -2.000000 2.000000 0.000000 -90.785797 -164.369995 -1.963300 -41.875401 0.316648 0.091264 -0.054403 0.001203 -137.350998 -8.691700 4.538425 -8.803186 25.943424 3.650706 1.749385 -21.199949 11.974571 4.915094 2.585424 2.941263 2.867099 3.554408 -4.189012 -0.114372 -16.024067 -10.543774 -3.146414 
0.099114 44.982182 3.594519 0.842031 -4.130410 -2.815110 -20.239300 1.511250 0.358878 17.890600 0.078041 0.406522 17.842800 -1.950260 -0.254464 13.143800 3.789940 0.435011 2.000000 -2.000000 0.000000 87.761803 170.513000 1.715760 38.359798 -0.322052 0.084904 0.045290 -0.014502 -142.106995 -2.000000 2.000000 0.000000 -90.805397 -164.389008 -1.885120 -41.865700 0.316663 0.091247 -0.054403 0.001203 -137.350998 -8.678789 4.542271 -8.803279 25.914801 3.640376 1.737551 -21.139685 12.026277 4.916645 2.609866 2.946661 2.860426 3.542299 -4.186466 -0.114527 -16.030066 -10.544585 -3.170228 
0.097487 44.982182 3.590374 0.822459 -4.140200 -2.833370 -20.220100 1.528610 0.321739 17.929701 0.126820 0.394572 17.871099 -1.857560 -0.223425 13.154100 3.828380 0.441842 2.000000 -2.000000 0.000000 87.722801 170.533005 1.706040 38.349998 -0.322067 0.084886 0.045307 -0.014693 -142.175995 -2.000000 2.000000 0.000000 -90.883499 -164.389008 -1.738640 -41.895000 0.316617 0.091299 -0.054405 0.001449 -137.438995 -8.663949 4.548112 -8.794490 25.943605 3.649333 1.749076 -21.163218 12.043631 4.931673 2.633497 2.949043 2.882352 3.540825 -4.175402 -0.124276 -16.027998 -10.551319 -3.163071 
0.096706 44.981419 3.588767 0.802857 -4.120690 -2.841450 -20.220301 1.546930 0.314992 17.959000 0.165845 0.383101 17.901199 -1.831300 -0.233384 13.164100 3.847540 0.436480 2.000000 -2.000000 0.000000 87.683701 170.552994 1.706080 38.320702 -0.322110 0.084831 0.045313 -0.014747 -142.195007 -2.000000 2.000000 0.000000 -90.912804 -164.358994 -1.709410 -41.943802 0.316539 0.091386 -0.054406 0.001586 -137.488007 -8.650058 4.533638 -8.696185 25.942663 3.653490 1.740293 -21.166304 12.000854 4.905162 2.633858 2.922351 2.880139 3.554665 -4.188794 -0.114350 -16.039005 -10.535354 -3.155229 
0.096160 44.980259 3.586250 0.802847 -4.110930 -2.841310 -20.230000 1.553710 0.333066 17.968700 0.156091 0.393336 17.882900 -1.841780 -0.256377 13.164000 3.837900 0.424511 2.000000 -2.000000 0.000000 87.703300 170.561996 1.774470 38.301201 -0.322139 0.084794 0.045318 -0.014801 -142.214996 -2.000000 2.000000 0.000000 -90.873703 -164.350006 -1.807090 -41.963299 0.316508 0.091421 -0.054406 0.001586 -137.488007 -8.663796 4.575350 -8.510794 25.933239 3.650178 1.739572 -21.073074 11.830454 4.854527 2.628651 2.925874 2.889999 3.541843 -4.186849 -0.114566 -16.008747 -10.528278 -3.148180 
0.095362 44.978191 3.582274 0.802867 -4.130460 -2.831820 -20.239799 1.557060 0.341997 17.968700 0.126824 0.404424 17.766001 -1.905160 -0.270755 13.104800 3.800080 0.424201 2.000000 -2.000000 0.000000 87.742302 170.552002 1.823270 38.271900 -0.322182 0.084739 0.045318 -0.014801 -142.214996 -2.000000 2.000000 0.000000 -90.824898 -164.350006 -1.865690 -41.943802 0.316539 0.091386 -0.054407 0.001668 -137.516998 -8.667465 4.627671 -8.383802 25.913284 3.651964 1.740104 -20.978077 11.697354 4.784399 2.637916 2.945009 2.882737 3.542865 -4.186475 -0.124268 -16.016705 -10.526242 -3.170327 
